<svg xmlns="http://www.w3.org/2000/svg" viewBox="0 0 100 100">
  <mask id="afsv-cutout">
    <rect width="100" height="100" fill="white" />
    <circle cx="50" cy="50" r="10" fill="black" />
    <g transform="rotate(0 50 50)"><rect x="43" y="-5" width="14" height="42" rx="7" fill="black" /></g>
    <g transform="rotate(36 50 50)"><rect x="43" y="-5" width="14" height="42" rx="7" fill="black" /></g>
    <g transform="rotate(72 50 50)"><rect x="43" y="-5" width="14" height="42" rx="7" fill="black" /></g>
    <g transform="rotate(108 50 50)"><rect x="43" y="-5" width="14" height="42" rx="7" fill="black" /></g>
    <g transform="rotate(144 50 50)"><rect x="43" y="-5" width="14" height="42" rx="7" fill="black" /></g>
    <g transform="rotate(180 50 50)"><rect x="43" y="-5" width="14" height="42" rx="7" fill="black" /></g>
    <g transform="rotate(216 50 50)"><rect x="43" y="-5" width="14" height="42" rx="7" fill="black" /></g>
    <g transform="rotate(252 50 50)"><rect x="43" y="-5" width="14" height="42" rx="7" fill="black" /></g>
    <g transform="rotate(288 50 50)"><rect x="43" y="-5" width="14" height="42" rx="7" fill="black" /></g>
    <g transform="rotate(324 50 50)"><rect x="43" y="-5" width="14" height="42" rx="7" fill="black" /></g>
  </mask>
  <circle cx="50" cy="50" r="48" fill="black" mask="url(#afsv-cutout)" />
</svg>
